<svg xmlns="http://www.w3.org/2000/svg" width="323" height="202" viewBox="0 0 323 202"><g id="Dark" transform="translate(-225 -535)"><g id="Group_188" data-name="Group 188"><rect id="Rectangle_207" width="323" height="202" fill="#333234" data-name="Rectangle 207" rx="6" transform="translate(225 535)"/><path id="Rectangle_209" fill="#212121" d="M6,0H95a0,0,0,0,1,0,0V202a0,0,0,0,1,0,0H6a6,6,0,0,1-6-6V6A6,6,0,0,1,6,0Z" data-name="Rectangle 209" transform="translate(225 535)"/><g id="Group_195" data-name="Group 195" transform="translate(-345 1)"><g id="Group_196" data-name="Group 196" transform="translate(0 -6)"><rect id="Rectangle_221" width="81" height="15" fill="#373737" data-name="Rectangle 221" rx="2" transform="translate(577 560)"/><rect id="Rectangle_217" width="22" height="4" fill="#efefef" data-name="Rectangle 217" rx="1" transform="translate(577 602)"/><rect id="Rectangle_231" width="29" height="4" fill="#fff" data-name="Rectangle 231" rx="1" transform="translate(591 566)"/><g id="Group_198" data-name="Group 198"><rect id="Rectangle_226" width="81" height="15" fill="#212121" data-name="Rectangle 226" rx="2" transform="translate(577 580)"/><rect id="Rectangle_232" width="30" height="4" fill="#fff" data-name="Rectangle 232" rx="1" transform="translate(613 586)"/><rect id="Rectangle_233" width="20" height="4" fill="#fff" data-name="Rectangle 233" rx="1" transform="translate(591 586)"/></g><g id="Voice_Channel" data-name="Voice Channel"><rect id="Rectangle_227" width="81" height="15" fill="#36ad93" data-name="Rectangle 227" rx="2" transform="translate(577 614)"/><rect id="Rectangle_230" width="16" height="4" fill="#fff" data-name="Rectangle 230" rx="1" transform="translate(591 620)"/><g id="Connected_Users" data-name="Connected Users"><circle id="Ellipse_50" cx="4.5" cy="4.5" r="4.5" fill="#8b8b8b" data-name="Ellipse 50" transform="translate(630 617)"/><circle id="Ellipse_51" cx="4.5" cy="4.5" r="4.5" fill="#b7b7b7" data-name="Ellipse 51" transform="translate(635 617)"/><circle id="Ellipse_52" cx="4.5" cy="4.5" r="4.5" fill="#e8e8e8" data-name="Ellipse 52" transform="translate(641 617)"/></g></g><g id="Group_199" data-name="Group 199" transform="translate(0 54)"><rect id="Rectangle_226-2" width="81" height="15" fill="#212121" data-name="Rectangle 226" rx="2" transform="translate(577 580)"/><rect id="Rectangle_234" width="25" height="4" fill="#fff" data-name="Rectangle 234" rx="1" transform="translate(591 586)"/></g><g id="Group_200" data-name="Group 200" transform="translate(0 74)"><rect id="Rectangle_226-3" width="81" height="15" fill="#212121" data-name="Rectangle 226" rx="2" transform="translate(577 580)"/><rect id="Rectangle_235" width="15" height="4" fill="#fff" data-name="Rectangle 235" rx="1" transform="translate(629 586)"/><rect id="Rectangle_236" width="36" height="4" fill="#fff" data-name="Rectangle 236" rx="1" transform="translate(591 586)"/></g><g id="Group_201" data-name="Group 201" transform="translate(0 94)"><rect id="Rectangle_226-4" width="81" height="15" fill="#212121" data-name="Rectangle 226" rx="2" transform="translate(577 580)"/><rect id="Rectangle_237" width="20" height="4" fill="#fff" data-name="Rectangle 237" rx="1" transform="translate(591 586)"/><rect id="Rectangle_238" width="30" height="4" fill="#fff" data-name="Rectangle 238" rx="1" transform="translate(613 586)"/></g></g><path id="Rectangle_224" fill="#404040" d="M0,0H95a0,0,0,0,1,0,0V51a0,0,0,0,1,0,0H6a6,6,0,0,1-6-6V0A0,0,0,0,1,0,0Z" data-name="Rectangle 224" transform="translate(570 685)"/></g></g><g id="Group_187" data-name="Group 187" transform="translate(0 -9)"><circle id="Ellipse_49" cx="10.5" cy="10.5" r="10.5" fill="#686868" data-name="Ellipse 49" transform="translate(336 681)"/><rect id="Rectangle_210" width="34" height="8" fill="#e8e8e8" data-name="Rectangle 210" rx="2" transform="translate(365 681)"/><rect id="Rectangle_211" width="28" height="8" fill="#676767" data-name="Rectangle 211" rx="2" transform="translate(404 681)"/><rect id="Rectangle_212" width="24" height="6" fill="#fff" data-name="Rectangle 212" rx="2" transform="translate(365 696)"/><rect id="Rectangle_213" width="47" height="6" fill="#fff" data-name="Rectangle 213" rx="2" transform="translate(393 696)"/><rect id="Rectangle_214" width="55" height="6" fill="#fff" data-name="Rectangle 214" rx="2" transform="translate(444 696)"/></g><g id="Group_189" data-name="Group 189"><line id="Line_18" x2="191" fill="none" stroke="#707070" stroke-linecap="round" stroke-width="1" data-name="Line 18" opacity=".5" transform="translate(335.5 656.5)"/></g><g id="Group_192" data-name="Group 192" transform="translate(0 -83)"><rect id="Rectangle_210-2" width="34" height="8" fill="#e8e8e8" data-name="Rectangle 210" rx="2" transform="translate(365 681)"/><rect id="Rectangle_211-2" width="28" height="8" fill="#676767" data-name="Rectangle 211" rx="2" transform="translate(404 681)"/><rect id="Rectangle_212-2" width="81" height="6" fill="#68abee" data-name="Rectangle 212" rx="2" transform="translate(365 696)"/><g id="Group_194" data-name="Group 194" transform="translate(0 2)"><rect id="Rectangle_219" width="23" height="6" fill="#68abee" data-name="Rectangle 219" rx="2" transform="translate(372 707)"/><rect id="Rectangle_220" width="103" height="6" fill="#888" data-name="Rectangle 220" rx="2" transform="translate(372 718)"/><line id="Line_35" y2="17" fill="none" stroke="#707070" stroke-linecap="round" stroke-width="1" data-name="Line 35" transform="translate(365.5 707.5)"/></g><circle id="Ellipse_49-2" cx="10.5" cy="10.5" r="10.5" fill="#686868" data-name="Ellipse 49" transform="translate(336 681)"/></g><g id="Group_193" data-name="Group 193" transform="translate(0 -133)"><circle id="Ellipse_49-3" cx="10.5" cy="10.5" r="10.5" fill="#686868" data-name="Ellipse 49" transform="translate(336 681)"/><rect id="Rectangle_210-3" width="34" height="8" fill="#e8e8e8" data-name="Rectangle 210" rx="2" transform="translate(365 681)"/><rect id="Rectangle_211-3" width="28" height="8" fill="#676767" data-name="Rectangle 211" rx="2" transform="translate(404 681)"/><rect id="Rectangle_212-3" width="95" height="6" fill="#fff" data-name="Rectangle 212" rx="2" transform="translate(365 696)"/><rect id="Rectangle_213-2" width="29" height="6" fill="#fff" data-name="Rectangle 213" rx="2" transform="translate(365 709)"/><rect id="Rectangle_218" width="50" height="6" fill="#fff" data-name="Rectangle 218" rx="2" transform="translate(398 709)"/><rect id="Rectangle_214-2" width="68" height="6" fill="#fff" data-name="Rectangle 214" rx="2" transform="translate(464 696)"/></g><rect id="Rectangle_228" width="191" height="18" fill="#434343" data-name="Rectangle 228" rx="4" transform="translate(336 709)"/><g id="Rectangle_229" fill="#707070" stroke="#707070" stroke-width="1" data-name="Rectangle 229"><path stroke="none" d="M0,0H17a4,4,0,0,1,4,4V14a4,4,0,0,1-4,4H0a0,0,0,0,1,0,0V0A0,0,0,0,1,0,0Z" transform="translate(506 709)"/><path fill="none" d="M1,.5H17A3.5,3.5,0,0,1,20.5,4V14A3.5,3.5,0,0,1,17,17.5H1A.5.5,0,0,1,.5,17V1A.5.5,0,0,1,1,.5Z" transform="translate(506 709)"/></g></g></svg>